<?xml version="1.0" encoding="utf-8"?>
<!-- Generator: Adobe Illustrator 24.0.1, SVG Export Plug-In . SVG Version: 6.00 Build 0)  -->
<svg version="1.1" id="Layer_1" xmlns="http://www.w3.org/2000/svg" xmlns:xlink="http://www.w3.org/1999/xlink" x="0px" y="0px"
	 viewBox="0 0 1920 1080" style="enable-background:new 0 0 1920 1080;" xml:space="preserve">
<style type="text/css">
	.st0{stroke:#000000;stroke-width:4;stroke-miterlimit:10;}
	.st1{fill:#FFFFFF;stroke:#FFFFFF;stroke-width:4;stroke-miterlimit:10;}
	.st2{fill:#666666;stroke:#666666;stroke-width:4;stroke-miterlimit:10;}
	.st3{fill:#B3B3B3;stroke:#B3B3B3;stroke-width:4;stroke-miterlimit:10;}
	.st4{fill:#881800;}
</style>
<path class="st0" d="M1503.65,502.06c0,0-38.91-51.74-30.87-113.54c-0.08-19.63-3.39-38.78-9.27-57.69
	c-0.77-2.49-1.59-4.96-2.42-7.43c-2.49-3.09-4.72-6.32-6.57-9.75c-6.3-5.91-14.11-12.2-23.83-18.82c0,0-8.37-19.84-9.47-33.37
	c-3.63-6.3-7.81-12.26-12.86-17.62c-0.77-0.82-1.26-1.7-1.53-2.58c-9.85-7.75-21.23-18.47-23.89-28.31
	c-4.89-18.11-80.66-122.3-180.87-54.2c0,0-39.65-19.91-60.31-16.35c0,0,17.96,93.03,23.64,144.65s35.48,478.52,41.69,581.69
	c0,0,75.98,2.41,121.56-30.42c0,0,53.32,53.61,52.36,119.3c0,0,20.86-16.44,15.27-74.5c0,0,36.47,61.09,11.16,117.41
	c0,0,32.43-14.98,35.44-44.57c0,0,11.08,34.95,48.29,45.8c0,0-22.62-38.99-22.35-57.02c0,0,21.5,27.37,38.47,12.16
	c0,0-30.48-30.08-13.03-77.5s25.71-83.37,15.99-123.45c0,0,8.75,18.17,21.54,24.8c0,0-17.2-89.38,5.58-127.96
	c0.19-1.06,0.65-2.11,1.46-3.1c0.32-0.39,0.63-0.79,0.94-1.18c0.58-2.54,1.41-5.02,2.42-7.44
	C1544.25,620.15,1547.81,547.54,1503.65,502.06z"/>
<path class="st1" d="M1344.99,470.73c0,0,4.98,99.28-22.51,128.51c-27.49,29.23-87.35,69.58-87.35,69.58s60.14-59.67,73.33-80.09
	S1339.12,519.6,1344.99,470.73z"/>
<path class="st1" d="M1276.47,311.25c0,0,28.87-0.66,40.89,23.35"/>
<path class="st1" d="M1310.65,600.36c0,0-52.05,112.85-2.73,185.49C1307.92,785.85,1291.77,697.88,1310.65,600.36z"/>
<path class="st2" d="M1101.57,35.86c0,0-22.7,106.31-18.15,252.11c4.55,145.8,29.76,793.61,29.76,793.61l113.93-4.42l-59.91-797.85
	C1167.2,279.32,1150.91,142.08,1101.57,35.86z"/>
<path class="st3" d="M1082,284.2c0-57.6,5.86-196.23,18.56-252.43c-0.03-0.14-0.05-0.27-0.08-0.41
	c-4.8,14.2-41.61,127.01-43.48,250.6c-2,132.22,15,800.04,15,800.04h40C1112,1082,1082,342.47,1082,284.2z"/>
<path class="st4" d="M1079.31,130.26c0,0-20.14,74.61-21.77,106.69c-1.63,32.08-1.37,487.34,8.16,706.52c0,0,20.6-34.86,37.6-35.06
	c17-0.2,11.84-14.24,7.6-34.71c-4.24-20.47-11.81-70.4,2.93-92.37c14.75-21.97,27.86-11.86,35.43-49.14s4.26-64.17-9.74-64.01
	c-14,0.16-18.69,27.15-33.69,27.32c-15,0.17-20.41-35.67-0.59-51.29c19.82-15.62,36.78-19.66,38.57-37.64
	c1.79-17.97,2.59-35.94-7.58-49.93c-10.16-13.99-16.5-43.41-12.62-53.72c3.88-10.3,9.47-46.28,7.26-64.2
	c-2.21-17.93-29.47-40.7-28.66-57.38s-10.59-51.17,9.1-78.33s18.13-75.87,4.98-88.54c-13.15-12.67-22.53-45.91-29.75-65.06
	C1079.31,130.26,1079.31,130.26,1079.31,130.26z"/>
<path class="st4" d="M1075,118c0,0-15,65-18,112s18,10,18,10l13-85L1075,118z"/>
</svg>
